<svg width="48" height="48" viewBox="0 0 48 48" fill="none" xmlns="http://www.w3.org/2000/svg">
<path d="M32.7914 24.6072C33.0355 24.398 33.1575 24.2933 33.2023 24.1688C33.2415 24.0596 33.2415 23.94 33.2023 23.8308C33.1575 23.7063 33.0355 23.6016 32.7914 23.3924L24.3206 16.1318C23.9004 15.7716 23.6903 15.5915 23.5124 15.5871C23.3578 15.5832 23.2101 15.6512 23.1124 15.771C23 15.909 23 16.1857 23 16.7392V21.0344C20.8653 21.4079 18.9116 22.4896 17.4597 24.1137C15.8768 25.8843 15.0012 28.1757 15 30.5508V31.1628C16.0493 29.8987 17.3595 28.8763 18.8408 28.1657C20.1467 27.5392 21.5584 27.1681 23 27.0703V31.2604C23 31.8139 23 32.0906 23.1124 32.2286C23.2101 32.3485 23.3578 32.4164 23.5124 32.4125C23.6903 32.4081 23.9004 32.228 24.3206 31.8678L32.7914 24.6072Z" stroke="white" stroke-width="2" stroke-linecap="round" stroke-linejoin="round"/>
<rect x="0.5" y="0.5" width="47" height="47" rx="23.5" stroke="white"/>
</svg>
